<?xml version="1.0" encoding="UTF-8"?>
<svg id="Layer_1" xmlns="http://www.w3.org/2000/svg" version="1.1" viewBox="0 0 48 41.38">
  <!-- Generator: Adobe Illustrator 30.5.1, SVG Export Plug-In . SVG Version: 2.1.4 Build 3)  -->
  <defs>
    <style>
      .st0 {
        fill: #296fda;
      }
    </style>
  </defs>
  <g id="h2DOg7">
    <g>
      <path class="st0" d="M13.97,28.44c2.2,2.58,4.61,1.34,7.38,2.24s3.49,3.64,3.04,6.36c-.66,3.89-4.98,4.52-8.61,4.31-7.31-.44-12.41-5.63-14.53-12.45-1.66-5.35-1.66-11.04,0-16.38C3.38,5.62,8.52.43,15.91.04c3.36-.18,7.48.39,8.36,3.85.33,1.29.29,2.62-.07,3.89-.83,2.95-3.68,3.34-6.49,3.38-3.03.05-4.81,2.55-5.53,5.42-.92,3.69-.67,8.97,1.78,11.85Z"/>
      <path class="st0" d="M47.47,38.62c-.66,1.45-1.99,2.52-3.59,2.52h-12.37c-.66,0-1.24-.3-1.82-.48-2.28-.7-3.42-3.44-3.42-5.71V4.81c0-1.7.89-3.1,2.32-3.91,2.01-1.14,4.48-1.19,6.55-.18,1.67.81,2.62,2.36,2.62,4.22v24.57c0,1.02.82,1.75,1.76,1.75l4.23.03c1.58.01,2.95.92,3.65,2.35.76,1.54.81,3.34.07,4.98Z"/>
    </g>
  </g>
</svg>