<?xml version="1.0" encoding="UTF-8"?>
<svg id="Layer_1" xmlns="http://www.w3.org/2000/svg" version="1.1" viewBox="0 0 24 24">
  <!-- Generator: Adobe Illustrator 30.4.0, SVG Export Plug-In . SVG Version: 2.1.4 Build 226)  -->
  <defs>
    <style>
      .st0 {
        fill-rule: evenodd;
      }

      .st0, .st1 {
        fill: #fff;
      }
    </style>
  </defs>
  <path class="st1" d="M4,21c0-.55.45-1,1-1h14c.55,0,1,.45,1,1s-.45,1-1,1H5c-.55,0-1-.45-1-1Z"/>
  <path class="st0" d="M16.65,4.59c-.78-.78-2.05-.78-2.83,0l-6.91,6.91-.92,4.5,4.5-.92,6.91-6.91c.78-.78.78-2.05,0-2.83l-.76-.76ZM12.41,3.17c1.56-1.56,4.09-1.56,5.66,0l.76.76c1.56,1.56,1.56,4.09,0,5.66l-6.91,6.91c-.28.28-.63.47-1.01.55l-4.5.92c-1.4.29-2.65-.95-2.36-2.36l.92-4.5c.08-.38.27-.74.55-1.01l6.91-6.91Z"/>
</svg>