<?xml version="1.0" encoding="UTF-8"?>
<svg id="Layer_1" data-name="Layer 1" xmlns="http://www.w3.org/2000/svg" viewBox="0 0 19.54 17.71">
  <defs>
    <style>
      .cls-1 {
        fill: #afb3bc;
      }
    </style>
  </defs>
  <path class="cls-1" d="M6.44,8.49c-.42.63-.67,1.39-.67,2.21,0,2.21,1.79,4,4,4,.82,0,1.58-.25,2.21-.67l-1.47-1.47c-.23.09-.48.14-.74.14-1.1,0-2-.9-2-2,0-.26.05-.51.14-.74l-1.47-1.47Z"/>
  <path class="cls-1" d="M18.73,12.41c.32-.38.81-.91.81-1.7s-.49-1.32-.81-1.7c-.74-.9-1.94-2.2-3.45-3.29-1.5-1.08-3.4-2.01-5.51-2.01-.78,0-1.53.13-2.24.35L3.48,0l-1.41,1.41,16,16,1.41-1.41-2.1-2.1c.54-.54,1-1.06,1.36-1.49ZM9.77,5.71c1.53,0,3.01.68,4.34,1.63,1.32.95,2.39,2.11,3.08,2.94.1.12.17.21.24.29.05.06.08.11.1.14-.02.03-.05.08-.1.14-.06.08-.14.17-.24.29-.32.39-.74.86-1.23,1.35l-2.24-2.24c-.21-1.84-1.66-3.28-3.49-3.49l-1-1c.18-.02.36-.04.54-.04Z"/>
  <path class="cls-1" d="M9.77,15.71c-1.53,0-3.01-.68-4.34-1.63-1.32-.95-2.4-2.11-3.08-2.94-.1-.12-.17-.21-.24-.29-.05-.06-.08-.11-.1-.14.02-.03.05-.08.1-.14.06-.08.14-.17.24-.29.67-.81,1.71-1.94,2.99-2.88l-1.43-1.43c-1.35,1.03-2.42,2.2-3.1,3.03-.3.36-.75.85-.8,1.56v.14S0,10.85,0,10.85c.06.71.51,1.2.8,1.56.74.9,1.94,2.2,3.45,3.29,1.5,1.08,3.4,2.01,5.51,2.01,1.67,0,3.2-.58,4.52-1.36l-1.47-1.47c-.97.51-2,.83-3.05.83Z"/>
</svg>