<svg width="18" height="18" viewBox="0 0 18 18" fill="none" xmlns="http://www.w3.org/2000/svg">
<path fill-rule="evenodd" clip-rule="evenodd" d="M9.48901 2.06068C9.16809 1.97977 8.83211 1.97977 8.51118 2.06068C8.19176 2.14121 7.86894 2.35028 6.80023 3.10906L3.60022 5.38101C2.8112 5.94121 2.58646 6.1125 2.4292 6.31207C2.27137 6.51236 2.1533 6.741 2.08135 6.98565C2.00966 7.22941 2.0001 7.51183 2.0001 8.47949V12.2007C2.0001 13.0572 2.00087 13.6395 2.03765 14.0896C2.07347 14.528 2.13839 14.7522 2.21808 14.9086C2.40983 15.285 2.71579 15.5909 3.09211 15.7827C3.24851 15.8624 3.47272 15.9273 3.91113 15.9631C4.36122 15.9999 4.94352 16.0007 5.8001 16.0007H12.2001C13.0567 16.0007 13.639 15.9999 14.0891 15.9631C14.5275 15.9273 14.7517 15.8624 14.9081 15.7827C15.2844 15.5909 15.5904 15.285 15.7821 14.9086C15.8618 14.7522 15.9267 14.528 15.9625 14.0896C15.9993 13.6395 16.0001 13.0572 16.0001 12.2007V8.47949C16.0001 7.51183 15.9905 7.22941 15.9188 6.98565C15.8469 6.741 15.7288 6.51236 15.571 6.31207C15.4137 6.1125 15.189 5.94121 14.4 5.38101L11.2 3.10906C10.1313 2.35028 9.80843 2.14121 9.48901 2.06068ZM8.02227 0.121358C8.66411 -0.0404527 9.33608 -0.0404527 9.97792 0.121358C10.7086 0.30557 11.3555 0.765584 12.2148 1.37667C12.2618 1.4101 12.3095 1.44397 12.3578 1.47828L15.5578 3.75024C15.5928 3.77511 15.6274 3.79963 15.6616 3.82384C16.3009 4.27722 16.7835 4.61945 17.1419 5.0742C17.4576 5.4748 17.6937 5.93208 17.8376 6.42138C18.0009 6.97683 18.0006 7.56848 18.0001 8.35228C18.0001 8.39413 18.0001 8.43652 18.0001 8.47949V12.242C18.0001 13.0469 18.0001 13.7113 17.9559 14.2525C17.91 14.8146 17.8114 15.3313 17.5641 15.8166C17.1806 16.5693 16.5687 17.1812 15.8161 17.5647C15.3307 17.812 14.814 17.9105 14.2519 17.9565C13.7107 18.0007 13.0464 18.0007 12.2414 18.0007H5.75877C4.95381 18.0007 4.28946 18.0007 3.74827 17.9565C3.18617 17.9105 2.66947 17.812 2.18413 17.5647C1.43149 17.1812 0.819563 16.5693 0.43607 15.8166C0.188779 15.3313 0.0902147 14.8146 0.0442895 14.2525C7.21402e-05 13.7113 8.26292e-05 13.0469 9.53846e-05 12.242L9.58614e-05 8.47949C9.58614e-05 8.43652 7.13043e-05 8.39413 4.69856e-05 8.35228C-0.00040744 7.56848 -0.000750408 6.97683 0.162598 6.42138C0.306495 5.93208 0.542642 5.4748 0.858312 5.0742C1.21665 4.61945 1.69928 4.27722 2.33864 3.82384C2.37278 3.79963 2.40736 3.77511 2.44239 3.75024L5.6424 1.47828C5.69072 1.44397 5.73835 1.4101 5.78536 1.37667C6.64469 0.765585 7.29157 0.305571 8.02227 0.121358Z" fill="#296FDA"/>
</svg>
