<?xml version="1.0" encoding="UTF-8"?>
<svg id="Layer_1" xmlns="http://www.w3.org/2000/svg" version="1.1" viewBox="0 0 18 18">
  <!-- Generator: Adobe Illustrator 30.4.0, SVG Export Plug-In . SVG Version: 2.1.4 Build 226)  -->
  <defs>
    <style>
      .st0 {
        fill: #fff;
        fill-rule: evenodd;
      }
    </style>
  </defs>
  <path class="st0" d="M9.49,2.06c-.32-.08-.66-.08-.98,0-.32.08-.64.29-1.71,1.05l-3.2,2.27c-.79.56-1.01.73-1.17.93-.16.2-.28.43-.35.67-.07.24-.08.53-.08,1.49v3.72c0,.86,0,1.44.04,1.89.04.44.1.66.18.82.19.38.5.68.87.87.16.08.38.14.82.18.45.04,1.03.04,1.89.04h6.4c.86,0,1.44,0,1.89-.04.44-.04.66-.1.82-.18.38-.19.68-.5.87-.87.08-.16.14-.38.18-.82.04-.45.04-1.03.04-1.89v-3.72c0-.97,0-1.25-.08-1.49-.07-.24-.19-.47-.35-.67-.16-.2-.38-.37-1.17-.93l-3.2-2.27c-1.07-.76-1.39-.97-1.71-1.05ZM8.02.12c.64-.16,1.31-.16,1.96,0,.73.18,1.38.64,2.24,1.26.05.03.09.07.14.1l3.2,2.27s.07.05.1.07c.64.45,1.12.8,1.48,1.25.32.4.55.86.7,1.35.16.56.16,1.15.16,1.93v3.89c0,.8,0,1.47-.04,2.01-.05.56-.14,1.08-.39,1.56-.38.75-1,1.36-1.75,1.75-.49.25-1,.35-1.56.39-.54.04-1.21.04-2.01.04h-6.48c-.8,0-1.47,0-2.01-.04-.56-.05-1.08-.14-1.56-.39-.75-.38-1.36-1-1.75-1.75-.25-.49-.35-1-.39-1.56C0,13.71,0,13.05,0,12.24v-3.76s0-.09,0-.13c0-.78,0-1.38.16-1.93.14-.49.38-.95.7-1.35.36-.45.84-.8,1.48-1.25.03-.02.07-.05.1-.07l3.2-2.27s.1-.07.14-.1c.86-.61,1.51-1.07,2.24-1.26Z"/>
</svg>