<?xml version="1.0" encoding="UTF-8"?>
<svg id="Layer_1" xmlns="http://www.w3.org/2000/svg" version="1.1" viewBox="0 0 24 24">
  <!-- Generator: Adobe Illustrator 30.4.0, SVG Export Plug-In . SVG Version: 2.1.4 Build 226)  -->
  <defs>
    <style>
      .st0 {
        fill-rule: evenodd;
      }

      .st0, .st1 {
        fill: #fff;
      }
    </style>
  </defs>
  <path class="st0" d="M11,20c0-.55.45-1,1-1h3.2c.86,0,1.44,0,1.89-.04.44-.04.66-.1.82-.18.38-.19.68-.5.87-.87.08-.16.14-.38.18-.82.04-.45.04-1.03.04-1.89v-6.4c0-.86,0-1.44-.04-1.89-.04-.44-.1-.66-.18-.82-.19-.38-.5-.68-.87-.87-.16-.08-.38-.14-.82-.18-.45-.04-1.03-.04-1.89-.04h-3.2c-.55,0-1-.45-1-1s.45-1,1-1h3.24c.81,0,1.47,0,2.01.04.56.05,1.08.14,1.56.39.75.38,1.36,1,1.75,1.75.25.49.35,1,.39,1.56.04.54.04,1.21.04,2.01v6.48c0,.81,0,1.47-.04,2.01-.05.56-.14,1.08-.39,1.56-.38.75-1,1.36-1.75,1.75-.49.25-1,.35-1.56.39-.54.04-1.21.04-2.01.04h-3.24c-.55,0-1-.45-1-1Z"/>
  <path class="st1" d="M7.71,14.29c.39.39.39,1.02,0,1.41-.39.39-1.02.39-1.41,0l-3-3c-.39-.39-.39-1.02,0-1.41l3-3c.39-.39,1.02-.39,1.41,0,.39.39.39,1.02,0,1.41l-1.29,1.29h8.59c.55,0,1,.45,1,1s-.45,1-1,1H6.41l1.29,1.29Z"/>
</svg>