<?xml version="1.0" encoding="UTF-8"?>
<svg id="Layer_1" xmlns="http://www.w3.org/2000/svg" version="1.1" viewBox="0 0 491 90">
  <!-- Generator: Adobe Illustrator 30.4.0, SVG Export Plug-In . SVG Version: 2.1.4 Build 226)  -->
  <defs>
    <style>
      .st0 {
        fill: #296fda;
      }
    </style>
  </defs>
  <path class="st0" d="M25.19,44.59c0,8.45,2.9,20.54,13.48,20.54,7.31,0,14.11,1.76,14.11,11.96,0,9.19-7.17,12.09-16.25,12.09C12.34,89.18,0,67.27,0,44.59S12.34,0,36.53,0C45.6,0,52.78,2.9,52.78,12.09c0,10.2-6.81,11.96-14.11,11.96-10.58,0-13.48,12.09-13.48,20.54h.02Z"/>
  <path class="st0" d="M69.41,88.69c-9.44,0-12.85-6.43-12.85-15.24V10.58C56.55,3.53,62.85,0,69.03,0s12.34,3.53,12.34,10.58v51.9c0,3.15,1.01,4.92,4.79,4.92h7.93c5.55,0,9.33,4.65,9.33,10.58s-3.78,10.7-9.33,10.7h-24.7.02Z"/>
  <path class="st0" d="M136.79,0C143.85,0,150.52,2.9,152.41,10.7l15.49,65.63c2.52,10.58-4.92,12.85-11.6,12.85-14.23,0-10.45-14.23-15.24-14.23h-7.8c-4.79,0-1.01,14.23-15.24,14.23-6.68,0-13.98-2.27-11.6-12.85l14.86-65.63C123.04,2.88,129.74,0,136.77,0h.02ZM137.17,31.24l-3.4,24.32c-.13,1.01-.38,2.39,1.01,2.39h4.54c1.26,0,1.13-1.39,1.01-2.39l-3.15-24.32h-.02Z"/>
  <path class="st0" d="M231.52,65.13c0,16.25-16.75,24.43-30.61,24.43s-30.61-8.18-30.61-24.43V10.58C170.3,3.53,176.6,0,182.77,0s12.34,3.53,12.34,10.58v49.76c0,3.78,3.66,5.04,5.8,5.04s5.8-1.39,5.8-5.04V10.58C206.71,3.53,213.01,0,219.18,0s12.34,3.53,12.34,10.58v54.55Z"/>
  <path class="st0" d="M237.82,10.58C237.82,3.41,244.36,0,250.79,0,261.49,0,263.26,6.43,266.66,16.88l6.92,21.53V10.58C273.58,3.53,279.88,0,286.06,0s12.34,3.53,12.34,10.58v68.03c0,6.92-6.05,10.58-12.09,10.58-6.81,0-11.84-3.03-14.23-9.82l-9.44-27.22v26.45c0,7.06-6.29,10.58-12.47,10.58s-12.34-3.53-12.34-10.58V10.58Z"/>
  <path class="st0" d="M237.82,10.58C237.82,3.41,244.36,0,250.79,0,261.49,0,263.26,6.43,266.66,16.88l6.92,21.53V10.58C273.58,3.53,279.88,0,286.06,0s12.34,3.53,12.34,10.58v68.03c0,6.92-6.05,10.58-12.09,10.58-6.81,0-11.84-3.03-14.23-9.82l-9.44-27.22v26.45c0,7.06-6.29,10.58-12.47,10.58s-12.34-3.53-12.34-10.58V10.58Z"/>
  <path class="st0" d="M366.18,44.59c0,22.16-11.33,44.1-34.64,44.1h-13.98c-9.44,0-12.86-6.43-12.86-15.24V15.75c0-8.81,3.4-15.24,12.86-15.24h13.98c23.31,0,34.64,21.92,34.64,44.1v-.02ZM329.52,65.88c0,.76.76,1.39,1.76,1.39,7.06,0,9.33-14.11,9.33-22.43,0-5.67,0-24.07-9.71-24.07-1.01,0-1.39.13-1.39,1.64v43.47h.02Z"/>
  <path class="st0" d="M397.93,55.18c-.63,0-1.89,0-1.89,1.89v21.53c0,7.06-6.29,10.58-12.47,10.58s-12.34-3.53-12.34-10.58V15.75c0-8.81,3.4-15.24,12.85-15.24h19.91c15.62,0,26.7,11.46,26.7,26.7,0,10.83-3.15,17.89-8.56,22.16,1.51,1.89,3.15,4.03,4.16,6.29,3.53,7.69,5.17,16.5,5.17,24.32,0,6.05-4.41,9.19-10.2,9.19s-11.98-2.02-13.24-9.57c-1.39-8.45-3.91-15.62-4.79-17.64-1.51-3.4-3.53-6.81-5.28-6.81l-.02.02ZM405.98,28.72c0-4.16-1.51-8.18-5.91-8.18-3.91,0-5.8,3.4-5.8,8.18s1.89,8.18,5.8,8.18c4.41,0,5.91-4.03,5.91-8.18Z"/>
  <path class="st0" d="M475.14,49.38c-1.01,2.39-1.64,4.41-1.64,9.08v20.16c0,7.06-6.18,10.58-12.34,10.58s-12.47-3.53-12.47-10.58v-20.16c0-4.65-.76-6.68-1.76-9.08l-13.35-32.75C429.29,6.18,431.44,0,442.28,0,447.31,0,452.98,2.02,454.88,8.18l6.05,19.78,5.8-19.78C468.48,2,474.28,0,479.32,0,490.15,0,492.17,6.18,488.01,16.63l-12.85,32.75h-.02Z"/>
</svg>