<svg width="491" height="90" viewBox="0 0 491 90" fill="none" xmlns="http://www.w3.org/2000/svg">
<path d="M25.1949 44.5921C25.1949 53.0401 28.0937 65.1323 38.6785 65.1323C45.9836 65.1323 52.7917 66.8882 52.7917 77.092C52.7917 86.2855 45.6191 89.1843 36.5417 89.1843C12.3407 89.1843 0 67.2692 0 44.5921C0 21.9151 12.3407 0 36.5251 0C45.6026 0 52.7751 2.89882 52.7751 12.0922C52.7751 22.2961 45.967 24.0519 38.662 24.0519C28.0771 24.0519 25.1783 36.1441 25.1783 44.5921H25.1949Z" fill="white"/>
<path d="M69.4061 88.6873C59.9642 88.6873 56.5519 82.2602 56.5519 73.4478V10.5848C56.5519 3.52828 62.8465 0 69.0251 0C75.2037 0 81.3658 3.52828 81.3658 10.5848V62.482C81.3658 65.6293 82.3762 67.4017 86.153 67.4017H94.0875C99.6366 67.4017 103.413 72.0564 103.413 77.9865C103.413 83.9167 99.6366 88.6873 94.0875 88.6873H69.3895H69.4061Z" fill="white"/>
<path d="M136.791 0C143.848 0 150.523 2.89882 152.412 10.7008L167.9 76.3301C170.417 86.9149 162.98 89.1843 156.304 89.1843C142.075 89.1843 145.852 74.9552 141.065 74.9552H133.263C128.476 74.9552 132.252 89.1843 118.023 89.1843C111.348 89.1843 104.043 86.9149 106.428 76.3301L121.287 10.7008C123.042 2.88226 129.735 0 136.775 0L136.791 0ZM137.172 31.241L133.776 55.558C133.644 56.5684 133.395 57.9433 134.787 57.9433H139.326C140.584 57.9433 140.452 56.5518 140.336 55.558L137.189 31.241H137.172Z" fill="white"/>
<path d="M231.525 65.1323C231.525 81.3823 214.778 89.5653 200.913 89.5653C187.048 89.5653 170.302 81.3823 170.302 65.1323V10.5848C170.302 3.52828 176.596 0 182.775 0C188.953 0 195.115 3.52828 195.115 10.5848V60.3452C195.115 64.1219 198.776 65.3808 200.913 65.3808C203.05 65.3808 206.711 63.9894 206.711 60.3452V10.5848C206.711 3.52828 213.005 0 219.184 0C225.363 0 231.525 3.52828 231.525 10.5848V65.1323Z" fill="white"/>
<path d="M237.819 10.5848C237.819 3.41233 244.362 0 250.789 0C261.49 0 263.263 6.4271 266.658 16.8794L273.582 38.4135V10.5848C273.582 3.52828 279.877 0 286.056 0C292.234 0 298.396 3.52828 298.396 10.5848V78.616C298.396 85.54 292.35 89.2008 286.304 89.2008C279.496 89.2008 274.46 86.1695 272.075 79.378L262.633 52.1622V78.616C262.633 85.6726 256.339 89.2008 250.16 89.2008C243.981 89.2008 237.819 85.6726 237.819 78.616V10.5848Z" fill="white"/>
<path d="M237.819 10.5848C237.819 3.41233 244.362 0 250.789 0C261.49 0 263.263 6.4271 266.658 16.8794L273.582 38.4135V10.5848C273.582 3.52828 279.877 0 286.056 0C292.234 0 298.396 3.52828 298.396 10.5848V78.616C298.396 85.54 292.35 89.2008 286.304 89.2008C279.496 89.2008 274.46 86.1695 272.075 79.378L262.633 52.1622V78.616C262.633 85.6726 256.339 89.2008 250.16 89.2008C243.981 89.2008 237.819 85.6726 237.819 78.616V10.5848Z" fill="white"/>
<path d="M366.179 44.5922C366.179 66.7557 354.849 88.6873 331.542 88.6873H317.562C308.12 88.6873 304.707 82.2603 304.707 73.4478V15.753C304.707 6.94062 308.103 0.513519 317.562 0.513519H331.542C354.849 0.513519 366.179 22.4286 366.179 44.6087V44.5922ZM329.521 65.8778C329.521 66.6397 330.283 67.2692 331.277 67.2692C338.334 67.2692 340.603 53.1561 340.603 44.8406C340.603 39.1755 340.603 20.7721 330.896 20.7721C329.886 20.7721 329.505 20.9046 329.505 22.412V65.8778H329.521Z" fill="white"/>
<path d="M397.933 55.177C397.304 55.177 396.045 55.177 396.045 57.0654V78.5995C396.045 85.656 389.751 89.1843 383.572 89.1843C377.393 89.1843 371.231 85.656 371.231 78.5995V15.753C371.231 6.94062 374.627 0.513519 384.085 0.513519H403.996C419.617 0.513519 430.698 11.9763 430.698 27.2158C430.698 38.0491 427.551 45.1057 422.134 49.3793C423.642 51.2677 425.282 53.4046 426.292 55.6739C429.821 63.3599 431.46 72.1724 431.46 79.9909C431.46 86.037 427.054 89.1843 421.257 89.1843C415.459 89.1843 409.28 87.1634 408.021 79.6099C406.63 71.1619 404.112 63.9894 403.234 61.9685C401.727 58.5727 399.706 55.1604 397.95 55.1604L397.933 55.177ZM405.984 28.7232C405.984 24.5654 404.477 20.5402 400.07 20.5402C396.161 20.5402 394.273 23.936 394.273 28.7232C394.273 33.5104 396.161 36.9061 400.07 36.9061C404.477 36.9061 405.984 32.8809 405.984 28.7232Z" fill="white"/>
<path d="M475.141 49.3793C474.131 51.7646 473.502 53.7855 473.502 58.4568V78.616C473.502 85.6726 467.323 89.2008 461.161 89.2008C454.999 89.2008 448.688 85.6726 448.688 78.616V58.4568C448.688 53.8021 447.926 51.7812 446.932 49.3793L433.581 16.6309C429.29 6.17863 431.444 0 442.277 0C447.313 0 452.978 2.02089 454.883 8.18295L460.929 27.9612L466.727 8.18295C468.483 2.00433 474.28 0 479.316 0C490.149 0 492.17 6.17863 488.012 16.6309L475.158 49.3793H475.141Z" fill="white"/>
</svg>
