<svg width="24" height="24" viewBox="0 0 24 24" fill="none" xmlns="http://www.w3.org/2000/svg">
<path d="M17 22C17.5523 22 18 21.5523 18 21V17H16V21C16 21.5523 16.4477 22 17 22Z" fill="#004DE5"/>
<path d="M8 21C8 21.5523 7.55228 22 7 22C6.44772 22 6 21.5523 6 21V9H8V21Z" fill="#004DE5"/>
<path d="M8 7H6V3C6 2.44772 6.44772 2 7 2C7.55228 2 8 2.44772 8 3V7Z" fill="#004DE5"/>
<path d="M18 15H16V3C16 2.44772 16.4477 2 17 2C17.5523 2 18 2.44772 18 3V15Z" fill="#004DE5"/>
<path fill-rule="evenodd" clip-rule="evenodd" d="M10 8C10 9.65685 8.65685 11 7 11C5.34315 11 4 9.65685 4 8C4 6.34315 5.34315 5 7 5C8.65685 5 10 6.34315 10 8ZM8 8C8 8.55228 7.55228 9 7 9C6.44772 9 6 8.55228 6 8C6 7.44772 6.44772 7 7 7C7.55228 7 8 7.44772 8 8Z" fill="#004DE5"/>
<path fill-rule="evenodd" clip-rule="evenodd" d="M20 16C20 17.6569 18.6569 19 17 19C15.3431 19 14 17.6569 14 16C14 14.3431 15.3431 13 17 13C18.6569 13 20 14.3431 20 16ZM18 16C18 16.5523 17.5523 17 17 17C16.4477 17 16 16.5523 16 16C16 15.4477 16.4477 15 17 15C17.5523 15 18 15.4477 18 16Z" fill="#004DE5"/>
</svg>
