<?xml version="1.0" encoding="UTF-8"?>
<svg id="Layer_1" xmlns="http://www.w3.org/2000/svg" version="1.1" viewBox="0 0 24 24">
  <!-- Generator: Adobe Illustrator 30.4.0, SVG Export Plug-In . SVG Version: 2.1.4 Build 226)  -->
  <defs>
    <style>
      .st0 {
        fill-rule: evenodd;
      }

      .st0, .st1 {
        fill: #fff;
      }
    </style>
  </defs>
  <path class="st1" d="M17,22c.55,0,1-.45,1-1v-4h-2v4c0,.55.45,1,1,1Z"/>
  <path class="st1" d="M8,21c0,.55-.45,1-1,1s-1-.45-1-1v-12h2v12Z"/>
  <path class="st1" d="M8,7h-2V3c0-.55.45-1,1-1s1,.45,1,1v4Z"/>
  <path class="st1" d="M18,15h-2V3c0-.55.45-1,1-1s1,.45,1,1v12Z"/>
  <path class="st0" d="M10,8c0,1.66-1.34,3-3,3s-3-1.34-3-3,1.34-3,3-3,3,1.34,3,3ZM8,8c0,.55-.45,1-1,1s-1-.45-1-1,.45-1,1-1,1,.45,1,1Z"/>
  <path class="st0" d="M20,16c0,1.66-1.34,3-3,3s-3-1.34-3-3,1.34-3,3-3,3,1.34,3,3ZM18,16c0,.55-.45,1-1,1s-1-.45-1-1,.45-1,1-1,1,.45,1,1Z"/>
</svg>