<svg width="330" height="117" viewBox="0 0 330 117" fill="none" xmlns="http://www.w3.org/2000/svg">
<path d="M257.863 110.789C254.45 110.945 251.037 111.101 216.31 106.295C181.583 101.489 115.646 91.7148 74.5685 79.9697C33.491 68.2246 19.2714 54.8045 11.9461 46.7433C4.62085 38.6822 4.62085 36.3867 6.67926 32.9381C8.73768 29.4894 12.8545 24.9572 20.8014 20.9417C28.7482 16.9262 40.4003 13.5648 73.0392 10.531C105.678 7.49719 158.951 4.89292 200.727 5.62445C242.503 6.35598 271.168 10.5022 291.054 16.8037C310.941 23.1052 321.18 31.4362 323.67 38.5115C326.16 45.5867 320.591 51.1536 310.959 56.7562C301.327 62.3587 287.8 67.8282 263.32 73.1426C238.839 78.457 203.815 83.4505 183.771 86.5733C163.728 89.6962 159.727 90.797 155.605 91.9313" stroke="#BEE6E1" stroke-width="11" stroke-linecap="round"/>
</svg>
