<?xml version="1.0" encoding="UTF-8"?>
<svg id="Layer_1" xmlns="http://www.w3.org/2000/svg" version="1.1" viewBox="0 0 24 24">
  <!-- Generator: Adobe Illustrator 30.4.0, SVG Export Plug-In . SVG Version: 2.1.4 Build 226)  -->
  <defs>
    <style>
      .st0 {
        fill: #00242b;
      }
    </style>
  </defs>
  <path class="st0" d="M12,16c-2.21,0-4-1.79-4-4s1.79-4,4-4,4,1.79,4,4-1.79,4-4,4ZM12,10c-1.1,0-2,.9-2,2s.9,2,2,2,2-.9,2-2-.9-2-2-2Z"/>
  <path class="st0" d="M12,19c-4,0-7.33-3.32-8.96-5.3-.44-.53-.81-.98-.81-1.7s.38-1.17.81-1.7c1.63-1.98,4.96-5.3,8.96-5.3s7.33,3.32,8.96,5.3h0c.43.53.81.98.81,1.7s-.38,1.17-.81,1.7c-1.63,1.98-4.96,5.3-8.96,5.3ZM4.23,12.05s.21.2.36.38c1.13,1.37,4.12,4.57,7.42,4.57s6.28-3.2,7.42-4.57c.16-.19.33-.4.36-.48-.02.03-.21-.19-.36-.38l.77-.64-.77.63c-1.13-1.37-4.12-4.57-7.42-4.57s-6.28,3.2-7.42,4.57c-.16.19-.33.4-.36.48,0,0,0,0,0,0Z"/>
</svg>